<svg xmlns="http://www.w3.org/2000/svg" width="1108" height="1165" viewBox="0 0 1108 1165" version="1.1">
	<path d="M 159 50.562 C 132.220 56.378, 111.532 75.690, 103.360 102.500 C 101.603 108.262, 101.520 123.803, 101.256 493.972 L 100.982 879.443 103.477 884.543 C 109.382 896.611, 145.698 930.754, 264.047 1035.499 C 320.622 1085.571, 347.223 1109.402, 363.725 1124.796 L 375.949 1136.200 388.878 1131.469 C 395.988 1128.867, 402.282 1126.444, 402.864 1126.084 C 403.561 1125.653, 404.607 1100.727, 405.933 1052.965 C 407.039 1013.109, 408.229 973.188, 408.578 964.250 L 409.213 948 676.856 947.993 C 939.828 947.986, 944.644 947.952, 952.730 946.013 C 979.141 939.681, 999.911 919.091, 1006.710 892.500 C 1008.415 885.833, 1008.500 867.075, 1008.500 498.500 C 1008.500 126.124, 1008.431 111.235, 1006.663 104.500 C 1005.652 100.650, 1002.975 93.675, 1000.713 89 C 997.300 81.947, 994.975 78.877, 987.050 70.965 C 976.797 60.729, 969.665 56.266, 956.500 51.849 L 949.500 49.500 557.500 49.325 C 223.209 49.176, 164.543 49.358, 159 50.562 M 159.665 84.444 C 148.306 89.120, 142.341 94.763, 137.234 105.664 L 134.500 111.500 134.246 491.963 L 133.992 872.426 147.246 885.463 C 170.822 908.653, 203.604 938.372, 289 1013.973 C 318.425 1040.023, 349.166 1067.382, 357.314 1074.771 C 365.461 1082.160, 372.247 1088.047, 372.393 1087.853 C 372.643 1087.520, 377.117 924.626, 377.037 918.750 L 377 916 656.864 916 C 840.180 916, 938.585 915.653, 942.114 914.995 C 955.360 912.523, 968.367 902.172, 973.165 890.285 L 975.500 884.500 975.755 500.524 C 975.987 150.822, 975.867 116.055, 974.408 111.036 C 971.140 99.793, 962.892 90.183, 952.218 85.180 L 946.500 82.500 556 82.271 L 165.500 82.042 159.665 84.444 M 586 96.935 C 576.948 99.699, 568.187 107.323, 564.094 116 L 561.500 121.500 561.220 164.602 C 560.898 214.071, 560.390 211.235, 569.886 212.999 C 573.029 213.583, 596.473 214, 626.170 214 L 677.067 214 665.119 225.750 C 658.548 232.213, 601.523 290.600, 538.398 355.500 C 475.273 420.400, 415.463 481.835, 405.488 492.022 C 385.452 512.481, 381.429 518.441, 380.306 529.325 C 379.371 538.383, 381.343 542, 394.367 555.116 C 419.909 580.839, 696.038 848.290, 702.500 853.565 C 715.932 864.531, 732.570 874.874, 745.064 880.027 C 759.927 886.155, 757.876 885.974, 835.500 888.018 C 921.302 890.278, 941.468 890.425, 946.101 888.828 C 954.307 885.997, 959 879.260, 959 870.310 C 959 863.937, 956.918 857.921, 952.456 851.403 C 950.537 848.599, 879.556 777.274, 794.721 692.903 C 670.782 569.641, 638.468 538.026, 630.265 532 L 620.055 524.500 644.387 500 C 657.770 486.525, 703.065 440.175, 745.043 397 C 787.021 353.825, 821.734 318.350, 822.183 318.167 C 822.632 317.983, 823 345.347, 823 378.974 C 823 419.844, 823.362 441.552, 824.092 444.450 C 825.641 450.605, 830.108 454.557, 837.717 456.506 C 842.935 457.843, 849.479 458.049, 878.713 457.798 C 912.202 457.511, 913.679 457.417, 918.306 455.282 C 925.059 452.164, 933.288 443.414, 936.161 436.297 L 938.500 430.500 938.500 277 L 938.500 123.500 936.149 117.672 C 932.866 109.535, 924.389 101.024, 916.712 98.160 L 910.925 96 749.712 96.086 C 661.046 96.133, 587.375 96.515, 586 96.935 M 167.218 102.457 C 159.742 104.816, 157.616 107.899, 156.052 118.654 C 155.394 123.178, 155.327 249.615, 155.854 491.500 C 156.591 830.144, 156.776 857.884, 158.330 862.634 C 160.501 869.274, 164.152 872.942, 182.510 886.928 C 201.630 901.494, 211.756 909.915, 259.500 950.956 C 346.671 1025.888, 353.595 1030.965, 357.761 1023 C 359.569 1019.545, 358.956 122.524, 357.142 116.882 C 355.180 110.778, 351.749 106.626, 346.499 104 L 341.500 101.500 256.500 101.303 C 187.471 101.143, 170.695 101.360, 167.218 102.457" stroke="none" fill="#000000" fill-rule="evenodd"/>
</svg>